<svg width="669" height="214" viewBox="0 0 669 214" fill="none" xmlns="http://www.w3.org/2000/svg">
<path d="M107 0L131.023 73.9352H208.763L145.87 119.63L169.893 193.565L107 147.87L44.107 193.565L68.13 119.63L5.23695 73.9352H82.977L107 0Z" fill="#1339FF"/>
<path d="M284.71 142.14C279.58 142.14 274.798 141.317 270.365 139.67C265.995 137.96 262.195 135.553 258.965 132.45C255.735 129.347 253.202 125.705 251.365 121.525C249.592 117.345 248.705 112.753 248.705 107.75C248.705 102.747 249.592 98.155 251.365 93.975C253.202 89.795 255.735 86.1533 258.965 83.05C262.258 79.9467 266.09 77.5717 270.46 75.925C274.83 74.215 279.612 73.36 284.805 73.36C290.568 73.36 295.762 74.3733 300.385 76.4C305.072 78.3633 308.998 81.2767 312.165 85.14L302.285 94.26C300.005 91.6633 297.472 89.7317 294.685 88.465C291.898 87.135 288.858 86.47 285.565 86.47C282.462 86.47 279.612 86.9767 277.015 87.99C274.418 89.0033 272.17 90.46 270.27 92.36C268.37 94.26 266.882 96.5083 265.805 99.105C264.792 101.702 264.285 104.583 264.285 107.75C264.285 110.917 264.792 113.798 265.805 116.395C266.882 118.992 268.37 121.24 270.27 123.14C272.17 125.04 274.418 126.497 277.015 127.51C279.612 128.523 282.462 129.03 285.565 129.03C288.858 129.03 291.898 128.397 294.685 127.13C297.472 125.8 300.005 123.805 302.285 121.145L312.165 130.265C308.998 134.128 305.072 137.073 300.385 139.1C295.762 141.127 290.537 142.14 284.71 142.14ZM345.115 141.76C339.288 141.76 334.158 140.62 329.725 138.34C325.355 136.06 321.967 132.957 319.56 129.03C317.153 125.04 315.95 120.512 315.95 115.445C315.95 110.315 317.122 105.787 319.465 101.86C321.872 97.87 325.133 94.7667 329.25 92.55C333.367 90.27 338.022 89.13 343.215 89.13C348.218 89.13 352.715 90.2067 356.705 92.36C360.758 94.45 363.957 97.49 366.3 101.48C368.643 105.407 369.815 110.125 369.815 115.635C369.815 116.205 369.783 116.87 369.72 117.63C369.657 118.327 369.593 118.992 369.53 119.625H328.015V110.98H361.74L356.04 113.545C356.04 110.885 355.502 108.573 354.425 106.61C353.348 104.647 351.86 103.127 349.96 102.05C348.06 100.91 345.843 100.34 343.31 100.34C340.777 100.34 338.528 100.91 336.565 102.05C334.665 103.127 333.177 104.678 332.1 106.705C331.023 108.668 330.485 111.012 330.485 113.735V116.015C330.485 118.802 331.087 121.272 332.29 123.425C333.557 125.515 335.298 127.13 337.515 128.27C339.795 129.347 342.455 129.885 345.495 129.885C348.218 129.885 350.593 129.473 352.62 128.65C354.71 127.827 356.61 126.592 358.32 124.945L366.205 133.495C363.862 136.155 360.917 138.213 357.37 139.67C353.823 141.063 349.738 141.76 345.115 141.76ZM379.682 141V70.51H394.502V141H379.682ZM433.621 141.76C427.794 141.76 422.664 140.62 418.231 138.34C413.861 136.06 410.473 132.957 408.066 129.03C405.659 125.04 404.456 120.512 404.456 115.445C404.456 110.315 405.628 105.787 407.971 101.86C410.378 97.87 413.639 94.7667 417.756 92.55C421.873 90.27 426.528 89.13 431.721 89.13C436.724 89.13 441.221 90.2067 445.211 92.36C449.264 94.45 452.463 97.49 454.806 101.48C457.149 105.407 458.321 110.125 458.321 115.635C458.321 116.205 458.289 116.87 458.226 117.63C458.163 118.327 458.099 118.992 458.036 119.625H416.521V110.98H450.246L444.546 113.545C444.546 110.885 444.008 108.573 442.931 106.61C441.854 104.647 440.366 103.127 438.466 102.05C436.566 100.91 434.349 100.34 431.816 100.34C429.283 100.34 427.034 100.91 425.071 102.05C423.171 103.127 421.683 104.678 420.606 106.705C419.529 108.668 418.991 111.012 418.991 113.735V116.015C418.991 118.802 419.593 121.272 420.796 123.425C422.063 125.515 423.804 127.13 426.021 128.27C428.301 129.347 430.961 129.885 434.001 129.885C436.724 129.885 439.099 129.473 441.126 128.65C443.216 127.827 445.116 126.592 446.826 124.945L454.711 133.495C452.368 136.155 449.423 138.213 445.876 139.67C442.329 141.063 438.244 141.76 433.621 141.76ZM485.383 141.76C481.013 141.76 476.801 141.253 472.748 140.24C468.758 139.163 465.591 137.833 463.248 136.25L468.188 125.61C470.531 127.067 473.286 128.27 476.453 129.22C479.683 130.107 482.849 130.55 485.953 130.55C489.373 130.55 491.779 130.138 493.173 129.315C494.629 128.492 495.358 127.352 495.358 125.895C495.358 124.692 494.788 123.805 493.648 123.235C492.571 122.602 491.114 122.127 489.278 121.81C487.441 121.493 485.414 121.177 483.198 120.86C481.044 120.543 478.859 120.132 476.643 119.625C474.426 119.055 472.399 118.232 470.563 117.155C468.726 116.078 467.238 114.622 466.098 112.785C465.021 110.948 464.483 108.573 464.483 105.66C464.483 102.43 465.401 99.58 467.238 97.11C469.138 94.64 471.861 92.7083 475.408 91.315C478.954 89.8583 483.198 89.13 488.138 89.13C491.621 89.13 495.168 89.51 498.778 90.27C502.388 91.03 505.396 92.1383 507.803 93.595L502.863 104.14C500.393 102.683 497.891 101.702 495.358 101.195C492.888 100.625 490.481 100.34 488.138 100.34C484.844 100.34 482.438 100.783 480.918 101.67C479.398 102.557 478.638 103.697 478.638 105.09C478.638 106.357 479.176 107.307 480.253 107.94C481.393 108.573 482.881 109.08 484.718 109.46C486.554 109.84 488.549 110.188 490.703 110.505C492.919 110.758 495.136 111.17 497.353 111.74C499.569 112.31 501.564 113.133 503.338 114.21C505.174 115.223 506.663 116.648 507.803 118.485C508.943 120.258 509.513 122.602 509.513 125.515C509.513 128.682 508.563 131.5 506.663 133.97C504.763 136.377 502.008 138.277 498.398 139.67C494.851 141.063 490.513 141.76 485.383 141.76ZM539.556 141.76C533.54 141.76 528.853 140.24 525.496 137.2C522.14 134.097 520.461 129.505 520.461 123.425V78.585H535.281V123.235C535.281 125.388 535.851 127.067 536.991 128.27C538.131 129.41 539.683 129.98 541.646 129.98C543.99 129.98 545.985 129.347 547.631 128.08L551.621 138.53C550.101 139.607 548.265 140.43 546.111 141C544.021 141.507 541.836 141.76 539.556 141.76ZM512.576 102.43V91.03H548.011V102.43H512.576ZM559.941 141V89.89H574.761V141H559.941ZM567.351 82.765C564.627 82.765 562.411 81.9733 560.701 80.39C558.991 78.8067 558.136 76.8433 558.136 74.5C558.136 72.1567 558.991 70.1933 560.701 68.61C562.411 67.0267 564.627 66.235 567.351 66.235C570.074 66.235 572.291 66.995 574.001 68.515C575.711 69.9717 576.566 71.8717 576.566 74.215C576.566 76.685 575.711 78.7433 574.001 80.39C572.354 81.9733 570.137 82.765 567.351 82.765ZM619.865 141V131.025L618.915 128.84V110.98C618.915 107.813 617.933 105.343 615.97 103.57C614.07 101.797 611.125 100.91 607.135 100.91C604.411 100.91 601.72 101.353 599.06 102.24C596.463 103.063 594.246 104.203 592.41 105.66L587.09 95.305C589.876 93.3417 593.233 91.8217 597.16 90.745C601.086 89.6683 605.076 89.13 609.13 89.13C616.92 89.13 622.968 90.9667 627.275 94.64C631.581 98.3133 633.735 104.045 633.735 111.835V141H619.865ZM604.285 141.76C600.295 141.76 596.875 141.095 594.025 139.765C591.175 138.372 588.99 136.503 587.47 134.16C585.95 131.817 585.19 129.188 585.19 126.275C585.19 123.235 585.918 120.575 587.375 118.295C588.895 116.015 591.27 114.242 594.5 112.975C597.73 111.645 601.941 110.98 607.135 110.98H620.72V119.625H608.75C605.266 119.625 602.86 120.195 601.53 121.335C600.263 122.475 599.63 123.9 599.63 125.61C599.63 127.51 600.358 129.03 601.815 130.17C603.335 131.247 605.393 131.785 607.99 131.785C610.46 131.785 612.676 131.215 614.64 130.075C616.603 128.872 618.028 127.13 618.915 124.85L621.195 131.69C620.118 134.983 618.155 137.485 615.305 139.195C612.455 140.905 608.781 141.76 604.285 141.76ZM647.148 141V70.51H661.968V141H647.148Z" fill="#1339FF"/>
</svg>
